<svg width="14" height="14" viewBox="0 0 24 25" fill="none" xmlns="http://www.w3.org/2000/svg">
    <path fill-rule="evenodd" clip-rule="evenodd"
          d="M12 4.25C7.44365 4.25 3.75 7.94365 3.75 12.5C3.75 13.5619 3.95027 14.5753 4.31442 15.5057C4.50304 15.9876 4.596 16.5392 4.50106 17.103L3.91458 20.5854L7.39704 19.9989C7.96081 19.904 8.51241 19.997 8.99431 20.1856C9.92468 20.5497 10.9381 20.75 12 20.75C16.5563 20.75 20.25 17.0563 20.25 12.5C20.25 7.94365 16.5563 4.25 12 4.25ZM2.25 12.5C2.25 7.11522 6.61522 2.75 12 2.75C17.3848 2.75 21.75 7.11522 21.75 12.5C21.75 17.8848 17.3848 22.25 12 22.25C10.748 22.25 9.54935 22.0136 8.44759 21.5824C8.16576 21.4721 7.89114 21.4369 7.64615 21.4781L3.81731 22.1229C2.96976 22.2657 2.23435 21.5302 2.37708 20.6827L3.02189 16.8539C3.06315 16.6089 3.02791 16.3342 2.9176 16.0524C2.48637 14.9507 2.25 13.752 2.25 12.5Z"
          fill="#000000"/>
</svg>