<?xml version="1.0" standalone="no"?>
<!DOCTYPE svg PUBLIC "-//W3C//DTD SVG 20010904//EN"
 "http://www.w3.org/TR/2001/REC-SVG-20010904/DTD/svg10.dtd">
<svg version="1.0" xmlns="http://www.w3.org/2000/svg"
 width="1200.000000pt" height="627.000000pt" viewBox="0 0 1200.000000 627.000000"
 preserveAspectRatio="xMidYMid meet">

<g transform="translate(0.000000,627.000000) scale(0.100000,-0.100000)"
fill="#000000" stroke="none">
<path d="M10284 2835 c-4 -8 -4 -22 0 -30 3 -8 2 -15 -3 -15 -5 0 -14 7 -21
15 -16 19 -44 19 -59 1 -12 -15 6 -78 33 -118 13 -18 12 -24 -8 -57 -13 -20
-33 -63 -45 -96 -22 -59 -23 -61 -55 -57 -26 3 -37 -1 -48 -17 -14 -20 -15
-16 -21 55 -8 113 -13 117 -153 137 -66 9 -160 19 -211 22 -106 6 -106 6 -118
-82 -4 -29 -10 -55 -13 -57 -4 -2 -74 -9 -157 -15 -435 -32 -787 -106 -962
-200 l-54 -30 -47 21 c-135 61 -579 -14 -700 -118 -45 -38 -55 -40 -105 -19
-68 28 -156 36 -232 19 -74 -16 -214 -38 -305 -48 -30 -3 -264 -15 -520 -26
-973 -42 -1294 -66 -1668 -126 -168 -27 -394 -45 -481 -38 -74 5 -199 33 -207
45 -3 5 8 31 25 58 51 79 39 181 -22 181 -9 0 -30 -12 -47 -27 -26 -23 -32
-38 -37 -84 -3 -33 -1 -71 7 -93 11 -34 10 -40 -11 -63 -44 -47 -94 -63 -204
-63 -114 0 -170 19 -195 64 -14 26 -13 29 22 59 43 38 58 65 58 107 0 57 -80
102 -128 72 -21 -14 -33 -74 -26 -138 l6 -60 -60 -27 c-66 -30 -111 -33 -390
-28 -136 3 -164 0 -148 -16 9 -10 344 -25 426 -20 43 3 87 14 128 32 l62 28
38 -41 c21 -23 50 -46 66 -51 15 -6 82 -11 149 -11 131 0 155 7 218 66 l26 25
74 -21 c145 -42 385 -37 701 15 353 58 744 87 1743 130 426 19 506 26 679 67
95 22 143 20 229 -8 26 -9 47 -17 47 -19 0 -2 -15 -18 -34 -37 -54 -54 -74
-164 -38 -207 25 -31 80 -37 120 -11 43 26 92 105 92 146 0 47 -8 62 -47 88
l-34 24 40 31 c121 96 496 170 644 127 31 -9 57 -20 57 -25 0 -4 -26 -28 -58
-53 -77 -59 -122 -128 -122 -184 0 -62 24 -86 93 -92 73 -6 105 8 162 69 52
55 65 84 65 140 0 32 -7 47 -40 83 l-39 43 37 21 c51 28 292 108 367 121 225
39 354 55 560 71 77 6 148 13 158 16 14 5 17 -1 17 -35 0 -23 0 -44 1 -48 0
-5 -59 -28 -133 -54 -145 -49 -305 -132 -374 -192 -63 -55 -138 -183 -159
-269 -15 -58 -17 -94 -11 -197 8 -143 19 -196 58 -262 37 -64 88 -105 183
-151 198 -95 481 -105 622 -22 30 17 59 50 99 110 31 47 58 83 60 81 3 -2 0
-46 -6 -98 -6 -52 -10 -137 -9 -189 4 -143 -10 -459 -27 -600 -15 -130 -54
-530 -54 -562 0 -13 8 -18 30 -18 36 0 37 5 45 220 10 270 26 491 46 634 10
77 21 142 24 144 11 11 264 -3 415 -23 58 -8 146 -17 195 -20 50 -3 117 -8
151 -11 l61 -5 6 -172 c3 -115 10 -187 20 -217 24 -70 46 -231 53 -393 5 -113
10 -150 21 -154 8 -3 17 -3 20 1 9 8 -16 348 -31 427 l-12 66 115 -1 c129 0
167 11 157 47 -3 11 1 25 9 31 13 10 19 35 16 63 -1 12 -42 27 -103 38 -34 5
-38 9 -38 36 0 60 35 89 150 123 106 30 214 120 258 213 23 49 27 71 27 143
-1 71 -7 103 -38 195 -46 138 -60 161 -187 318 -226 281 -408 397 -624 398
l-69 0 7 46 c3 25 6 63 6 84 0 29 4 39 16 39 40 0 93 24 103 47 16 35 13 94
-5 114 -22 25 -36 82 -38 169 -3 89 -12 120 -33 120 -11 0 -14 -6 -9 -22 4
-13 9 -39 11 -58 l5 -35 -10 30 c-5 17 -15 50 -21 74 -6 26 -17 45 -27 48 -10
2 -25 18 -36 36 -16 29 -19 30 -31 14 -7 -9 -10 -29 -8 -45 5 -25 1 -23 -38
21 -35 41 -47 48 -70 45 -17 -3 -30 1 -33 9 -7 18 -25 17 -32 -2z m132 -97
c13 -24 13 -28 0 -28 -18 0 -56 52 -56 76 0 16 2 16 21 -2 12 -10 27 -31 35
-46z m-139 15 c38 -44 39 -49 13 -56 -21 -5 -44 22 -56 67 -9 36 4 33 43 -11z
m63 -81 c0 -4 23 -33 50 -64 54 -60 61 -75 31 -59 -34 19 -131 113 -125 122 7
11 44 12 44 1z m130 -34 c0 -6 -7 -5 -15 2 -8 7 -15 17 -15 22 0 6 7 5 15 -2
8 -7 15 -17 15 -22z m-691 -13 c80 -9 146 -17 148 -18 1 -2 -2 -19 -7 -38 -6
-18 -10 -55 -10 -80 l0 -46 -62 -7 c-36 -3 -79 -16 -104 -30 l-43 -24 -16 24
c-12 19 -24 24 -55 24 l-40 0 0 54 c0 67 20 156 34 156 6 0 76 -7 155 -15z
m605 -102 c17 -10 52 -20 79 -23 44 -4 52 -9 68 -40 16 -30 25 -36 61 -40 30
-3 44 -10 46 -22 2 -12 -2 -15 -17 -11 -23 6 -51 -12 -51 -33 0 -19 19 -18 42
3 10 9 21 13 25 10 12 -13 -16 -56 -39 -61 -77 -16 -75 -14 -82 -53 -3 -21 -6
-66 -6 -100 l0 -62 -57 -17 c-45 -13 -81 -15 -160 -11 -138 8 -143 11 -143 95
1 174 30 322 88 437 l24 49 47 -51 c25 -28 59 -59 75 -70z m-364 17 c16 -39 8
-115 -15 -140 -19 -20 -41 -28 -30 -10 3 5 0 20 -7 32 -12 22 -13 112 -2 150
7 25 38 7 54 -32z m128 -101 c2 -12 -5 -16 -28 -15 -33 1 -36 6 -18 24 16 16
42 11 46 -9z m-243 -38 c-71 -12 -86 -41 -22 -41 l32 0 -35 -18 c-51 -28 -50
-42 5 -42 40 0 46 -2 36 -14 -9 -11 -109 -36 -144 -36 -7 0 -57 98 -57 110 0
8 64 37 95 43 11 3 45 5 75 5 52 0 53 -1 15 -7z m177 -62 c7 -5 21 -9 31 -9
17 0 18 -8 11 -97 -4 -54 -8 -99 -9 -101 -1 -1 -16 3 -34 9 -17 6 -66 9 -109
7 -72 -3 -81 -6 -151 -52 -89 -58 -150 -118 -258 -257 -108 -139 -160 -188
-206 -196 -65 -10 -100 51 -77 136 17 62 136 162 320 266 82 46 157 98 172
120 4 5 8 19 8 31 0 17 10 22 65 33 83 17 117 42 113 84 -3 27 1 32 28 39 18
4 40 20 50 35 l18 28 7 -34 c4 -18 13 -37 21 -42z m58 39 c0 -28 -44 -20 -48
8 -3 18 1 21 22 17 17 -4 26 -12 26 -25z m-447 -50 c34 -69 53 -141 38 -146
-6 -2 -11 -9 -11 -16 0 -12 -95 -78 -165 -114 -70 -36 -268 -176 -288 -204
-15 -20 -21 -48 -25 -120 -4 -86 -3 -95 17 -112 13 -12 41 -21 74 -24 46 -3
58 0 100 28 59 40 102 85 136 143 80 137 172 243 266 306 63 42 81 49 139 54
49 5 78 2 103 -8 35 -15 35 -16 29 -58 -3 -23 -9 -63 -12 -89 l-7 -48 41 0
c46 0 107 21 165 57 l37 23 52 -41 c67 -52 124 -81 148 -74 15 5 19 20 25 90
l7 85 35 6 c113 21 351 -105 488 -259 124 -139 158 -187 210 -292 60 -121 106
-277 107 -365 1 -64 -23 -119 -79 -181 -46 -51 -97 -80 -205 -119 -82 -28 -90
-29 -116 -16 -16 8 -43 30 -59 49 -30 34 -93 171 -93 202 0 8 20 56 45 105 40
80 45 97 45 157 -1 91 -21 132 -110 221 -71 70 -111 90 -123 60 -4 -13 9 -142
43 -408 10 -85 21 -174 24 -198 l4 -43 -81 6 c-45 3 -111 10 -147 16 -146 21
-333 34 -460 31 -74 -1 -141 2 -148 6 -21 14 -18 294 6 427 10 61 22 118 27
127 12 28 -22 34 -49 9 -13 -12 -51 -71 -86 -132 -97 -170 -130 -187 -375
-196 -158 -6 -161 -5 -230 22 -92 37 -168 85 -233 148 -65 63 -78 105 -87 268
-7 120 4 193 43 277 23 52 97 147 136 177 92 70 421 194 567 214 3 1 17 -23
32 -51z m-1256 -110 c56 -54 44 -125 -34 -200 -21 -20 -51 -42 -67 -48 -32
-12 -92 -6 -113 11 -17 15 -17 73 1 107 20 38 149 161 171 162 5 0 24 -14 42
-32z m-4289 -54 c2 -29 -4 -50 -25 -81 -15 -24 -31 -43 -34 -43 -12 0 -21 59
-14 93 8 35 43 79 59 74 6 -2 12 -21 14 -43z m-477 16 c24 -14 24 -46 -1 -87
-18 -30 -57 -60 -66 -51 -2 3 -4 33 -5 67 -2 77 20 98 72 71z m3982 -98 c26
-23 21 -73 -14 -126 -34 -51 -55 -66 -92 -66 -37 0 -51 23 -44 75 8 57 32 104
66 132 27 22 44 19 84 -15z m2872 -89 c-4 -38 -9 -70 -12 -73 -6 -7 -85 39
-128 76 l-40 34 30 1 c17 0 50 6 75 13 83 24 83 25 75 -51z m-276 41 c29 -4
49 -10 44 -14 -18 -18 -132 -70 -153 -70 -19 0 -21 4 -15 33 14 67 15 69 45
64 15 -3 51 -9 79 -13z m590 -507 c56 -73 71 -115 71 -193 0 -58 -5 -76 -35
-129 -42 -75 -52 -132 -35 -185 10 -31 10 -45 0 -69 -7 -17 -16 -31 -20 -31
-5 0 -11 30 -14 68 -12 131 -37 368 -47 447 -6 44 -13 102 -16 128 l-6 49 31
-16 c18 -9 50 -40 71 -69z m86 -672 c22 -22 48 -44 58 -50 17 -9 17 -12 3 -47
-9 -21 -16 -46 -16 -57 0 -26 35 -50 84 -58 30 -5 35 -8 22 -15 -14 -8 -15
-13 -5 -24 9 -12 5 -14 -25 -14 -25 0 -36 -4 -36 -15 0 -10 10 -15 28 -15 32
0 60 -16 49 -27 -10 -10 -219 -15 -233 -5 -11 8 -30 107 -40 213 -6 59 -3 73
22 129 24 55 29 61 39 44 5 -10 28 -37 50 -59z"/>
<path d="M10316 2446 c-5 -27 -12 -35 -36 -40 -36 -7 -40 -34 -10 -61 11 -10
20 -26 20 -37 0 -10 5 -18 10 -18 20 0 23 33 7 62 -13 23 -14 28 -2 28 19 0
35 32 35 69 0 41 -16 39 -24 -3z"/>
<path d="M10254 2449 c-10 -17 13 -36 27 -22 12 12 4 33 -11 33 -5 0 -12 -5
-16 -11z"/>
<path d="M10427 2413 c-13 -12 -7 -23 13 -23 11 0 20 7 20 15 0 15 -21 21 -33
8z"/>
<path d="M10346 2269 c-14 -11 -26 -29 -26 -40 0 -26 57 -51 82 -38 38 21 29
99 -11 99 -10 0 -30 -9 -45 -21z m52 -31 c-4 -25 -17 -32 -38 -18 -13 9 -12
12 4 25 27 21 38 19 34 -7z"/>
<path d="M10304 1892 c-11 -7 -34 -45 -34 -56 0 -10 78 -29 94 -23 22 9 22 73
0 81 -21 8 -47 7 -60 -2z m46 -31 c0 -14 -18 -23 -30 -16 -6 4 -8 11 -5 16 8
12 35 12 35 0z"/>
<path d="M10307 1685 c-13 -9 -17 -23 -15 -47 2 -28 7 -34 31 -36 21 -3 29 2
36 19 17 48 -17 90 -52 64z m33 -45 c0 -5 -4 -10 -9 -10 -6 0 -13 5 -16 10 -3
6 1 10 9 10 9 0 16 -4 16 -10z"/>
<path d="M2093 2630 c-76 -16 -116 -44 -166 -117 -56 -85 -72 -142 -64 -235 6
-69 35 -137 71 -168 26 -20 19 -27 -33 -33 -27 -3 -67 -15 -88 -26 -52 -26
-173 -120 -258 -200 -38 -37 -91 -84 -117 -106 -44 -37 -129 -170 -215 -335
-50 -96 -69 -294 -38 -399 25 -83 93 -140 275 -233 78 -39 161 -58 257 -58 46
0 83 -3 83 -6 0 -3 -36 -114 -80 -247 -89 -266 -99 -283 -186 -323 -89 -39
-153 -53 -339 -69 -180 -17 -225 -29 -225 -60 0 -9 10 -15 25 -15 14 0 25 4
25 9 0 10 47 17 218 31 142 13 244 36 336 79 36 17 68 31 72 31 17 0 104 65
105 79 1 9 3 43 4 76 5 125 67 355 96 355 11 0 90 -135 209 -355 l91 -169 -15
-63 c-20 -78 -21 -73 9 -73 18 0 26 7 31 25 3 14 9 25 13 25 4 0 13 -11 19
-25 10 -21 19 -25 52 -25 22 0 40 5 40 11 0 22 -161 291 -273 456 -62 92 -126
189 -140 215 l-27 47 57 16 c98 27 182 66 240 111 l56 43 29 -24 c16 -13 45
-27 66 -32 50 -9 159 -10 202 0 35 7 36 6 49 -30 7 -21 36 -90 63 -153 28 -63
61 -147 73 -185 13 -39 55 -129 93 -200 39 -72 85 -163 102 -202 27 -61 37
-73 56 -73 29 0 29 0 5 42 -28 46 -133 299 -161 383 -26 81 -177 398 -202 425
-16 17 -14 19 31 47 87 54 144 144 190 300 35 116 41 162 24 178 -10 10 -11
20 -4 32 17 32 61 289 61 359 0 36 3 43 25 48 32 8 48 65 46 173 -1 58 -7 95
-22 127 -18 43 -23 46 -57 46 -20 1 -66 7 -102 15 -36 8 -85 14 -110 15 -25 0
-61 4 -80 10 -47 14 -67 5 -89 -39 -15 -28 -41 -130 -41 -158 0 -3 -26 10 -49
25 -6 3 -2 102 5 123 2 9 20 27 39 40 63 43 56 76 -20 102 -33 12 -45 24 -72
73 -29 54 -31 61 -17 81 31 49 1 110 -70 137 -25 10 -46 22 -46 26 0 9 -65 31
-85 29 -5 -1 -29 -5 -52 -9z m-3 -44 c0 -2 -7 -6 -15 -10 -8 -3 -15 -1 -15 4
0 6 7 10 15 10 8 0 15 -2 15 -4z m-160 -164 c0 -5 -7 -17 -15 -28 -15 -19 -20
-8 -9 20 6 17 24 22 24 8z m429 -122 c4 -8 28 -22 52 -31 24 -9 45 -21 47 -27
2 -6 -15 -20 -37 -32 -33 -16 -41 -26 -41 -48 0 -22 -7 -32 -35 -45 -60 -29
-70 -97 -14 -97 10 0 20 -4 24 -9 7 -13 -61 -17 -162 -10 -72 4 -87 9 -111 32
-26 25 -28 34 -31 107 -1 53 3 88 12 107 8 15 18 48 22 73 4 25 11 50 16 56 5
7 44 15 86 19 42 4 86 11 97 15 18 7 24 1 44 -44 12 -28 26 -58 31 -66z m-424
-110 c9 -16 13 -30 11 -30 -3 0 -12 14 -21 30 -9 17 -13 30 -11 30 3 0 12 -13
21 -30z m646 -36 c7 -9 14 -51 17 -102 4 -83 3 -86 -13 -64 -22 29 -49 28 -74
-4 -24 -31 -25 -27 -10 69 16 103 46 142 80 101z m124 -9 c44 -8 106 -14 138
-15 57 0 58 0 74 -37 19 -45 22 -184 5 -226 -12 -28 -12 -28 -99 -25 l-88 3
-5 40 c-8 54 -18 68 -46 62 -28 -5 -40 20 -49 108 -4 33 -9 70 -12 83 -3 12
-4 22 -2 22 2 0 40 -7 84 -15z m-333 -97 c-14 -14 -42 -2 -42 17 0 9 10 19 23
24 18 7 23 5 25 -11 2 -11 -1 -25 -6 -30z m-244 -78 c52 -12 53 -13 47 -44
-11 -53 -16 -66 -27 -66 -21 0 -186 92 -210 118 -42 43 -39 54 17 67 l50 11
35 -37 c25 -26 50 -40 88 -49z m-224 14 c20 -30 130 -102 202 -134 l52 -22 -5
-41 c-6 -48 -41 -218 -46 -224 -2 -2 -17 1 -33 6 -16 6 -48 15 -71 21 l-41 10
18 38 c10 20 28 46 39 56 23 21 28 56 9 56 -7 -1 -30 -22 -50 -48 -21 -26 -46
-57 -55 -68 l-18 -22 -109 19 c-60 10 -112 21 -114 24 -23 23 162 353 199 355
4 0 14 -12 23 -26z m533 1 c42 -29 34 -174 -10 -183 -19 -4 -24 14 -31 121 -5
82 0 90 41 62z m-634 -17 c-31 -34 -108 -174 -134 -245 -17 -44 -29 -63 -41
-63 -27 0 -148 42 -148 51 0 4 15 18 33 30 17 12 59 48 92 80 53 51 203 169
214 169 3 0 -5 -10 -16 -22z m753 -74 c-7 -78 -6 -85 10 -82 12 2 23 22 33 60
25 88 34 83 27 -15 -8 -108 8 -114 41 -16 28 84 36 64 31 -93 -3 -115 -5 -128
-40 -212 -21 -49 -40 -91 -43 -94 -3 -3 -38 26 -78 64 -39 39 -89 80 -109 93
-38 23 -46 35 -29 45 15 10 66 127 96 217 23 74 48 119 63 119 3 0 2 -39 -2
-86z m-178 -79 c-4 -3 -181 25 -186 30 -2 2 1 28 8 59 l11 55 77 3 77 3 8 -73
c5 -41 7 -75 5 -77z m8 -72 c7 -45 -4 -65 -87 -153 -13 -14 -31 -36 -40 -49
l-15 -24 -53 18 c-39 13 -51 21 -47 32 9 24 36 182 36 213 0 15 2 29 5 31 2 3
47 -1 99 -10 l95 -15 7 -43z m402 -1 c2 -34 5 -62 7 -62 26 0 35 17 35 66 0
52 14 72 26 39 7 -18 -42 -327 -58 -367 -6 -16 -13 -28 -17 -28 -16 1 -124 29
-128 34 -3 2 9 25 27 50 59 87 70 122 70 234 0 93 2 103 18 100 14 -3 18 -16
20 -66z m-371 16 c-3 -8 -6 -5 -6 6 -1 11 2 17 5 13 3 -3 4 -12 1 -19z m-889
-94 c43 -14 83 -28 90 -30 15 -4 -4 -39 -104 -197 -35 -55 -75 -130 -89 -168
-15 -38 -29 -69 -32 -69 -14 0 -101 62 -131 93 l-32 33 16 40 c38 92 180 318
202 323 2 1 38 -11 80 -25z m267 -60 c55 -9 101 -17 103 -19 1 -1 -27 -50 -62
-109 -70 -115 -105 -197 -113 -262 -4 -34 -1 -46 17 -64 20 -20 30 -22 110
-18 l87 4 -10 -38 c-11 -43 -19 -45 -93 -24 -27 8 -89 22 -139 31 -113 20
-255 64 -262 81 -8 21 50 144 120 255 36 58 75 124 87 146 14 28 26 40 38 38
9 -2 62 -11 117 -21z m675 -86 c0 -41 -32 -158 -43 -158 -7 0 -45 16 -84 35
-40 19 -79 35 -88 35 -8 0 -15 2 -15 5 0 10 54 91 88 132 l35 41 53 -35 c34
-23 54 -43 54 -55z m-370 11 c0 -17 -52 -151 -94 -241 -49 -106 -51 -108 -153
-108 -64 0 -93 15 -93 48 0 19 106 231 151 303 l30 47 79 -20 c44 -11 80 -24
80 -29z m96 -24 l35 -14 -52 -77 c-53 -79 -141 -172 -147 -155 -2 5 10 36 27
69 16 32 39 89 51 125 23 72 29 76 86 52z m381 -131 c-13 -27 -22 -34 -35 -29
-9 3 -30 9 -45 12 -15 3 -26 11 -24 17 3 6 10 38 17 70 l12 58 46 -46 46 -46
-17 -36z m-243 -5 c50 -23 92 -43 94 -44 5 -4 -36 -112 -72 -188 -20 -43 -36
-82 -36 -87 0 -5 -12 -21 -27 -35 -33 -30 -79 -32 -198 -10 -104 20 -145 34
-145 49 0 7 7 32 15 57 12 34 33 59 91 109 42 36 96 93 120 128 25 34 50 62
56 62 6 0 52 -19 102 -41z m350 -14 c10 -41 8 -199 -3 -242 l-11 -40 -87 -11
c-156 -20 -191 -23 -197 -14 -3 5 27 40 66 78 78 76 112 123 148 202 20 44 27
52 51 52 20 0 28 -6 33 -25z m114 -1 c15 -5 11 -31 -20 -134 -27 -90 -38 -118
-52 -129 -8 -7 -11 28 -11 135 l0 144 35 -6 c19 -3 41 -7 48 -10z m-283 -34
l26 -10 -23 -33 c-19 -27 -111 -140 -139 -171 -4 -5 3 13 17 39 13 27 34 79
46 117 23 70 29 75 73 58z m-1164 -127 c16 -10 29 -21 29 -26 0 -4 -18 -40
-39 -80 -22 -40 -45 -91 -52 -114 -10 -36 -14 -41 -27 -30 -35 29 -52 89 -52
193 0 56 3 115 6 133 l6 31 51 -45 c27 -25 63 -53 78 -62z m159 -68 c36 -12
97 -28 135 -35 39 -7 111 -22 160 -34 l90 -22 -2 -36 c-2 -34 -55 -182 -74
-204 -5 -6 -50 -14 -99 -18 -83 -6 -97 -4 -180 23 -49 17 -113 43 -141 58 -29
16 -60 33 -71 38 -28 14 -18 61 37 173 37 75 50 92 63 87 9 -4 46 -17 82 -30z
m1190 -95 c-6 -12 -14 -19 -17 -17 -2 3 1 15 7 27 6 12 14 19 17 17 2 -3 -1
-15 -7 -27z m-51 -17 c-34 -91 -86 -128 -192 -139 -55 -6 -72 -3 -110 15 -24
12 -52 30 -61 40 -16 18 -15 21 30 57 44 36 51 39 103 36 31 -1 81 2 111 7 30
5 72 9 92 10 37 1 37 1 27 -26z m-554 -34 c132 -26 127 -18 50 -77 -37 -29
-95 -65 -129 -81 -61 -30 -156 -47 -156 -29 0 5 13 40 29 76 16 37 32 83 36
102 10 50 10 50 63 35 26 -8 74 -19 107 -26z m169 -75 c3 -8 2 -12 -4 -9 -6 3
-10 10 -10 16 0 14 7 11 14 -7z"/>
<path d="M2294 2279 c-9 -15 11 -33 30 -26 9 4 13 13 10 22 -7 17 -30 20 -40
4z"/>
<path d="M10304 753 c9 -98 8 -213 -3 -332 -5 -57 -8 -129 -5 -160 2 -31 1
-102 -4 -158 l-8 -103 32 0 c20 0 34 6 38 16 10 26 7 503 -4 615 -16 173 -20
189 -37 189 -13 0 -15 -10 -9 -67z"/>
</g>
</svg>
