<?xml version="1.0" standalone="no"?>
<!DOCTYPE svg PUBLIC "-//W3C//DTD SVG 20010904//EN"
 "http://www.w3.org/TR/2001/REC-SVG-20010904/DTD/svg10.dtd">
<svg version="1.0" xmlns="http://www.w3.org/2000/svg"
 width="1200.000000pt" height="234.000000pt" viewBox="0 0 1200.000000 234.000000"
 preserveAspectRatio="xMidYMid meet">

<g transform="translate(0.000000,234.000000) scale(0.100000,-0.100000)"
fill="#000000" stroke="none">
<path d="M10285 1569 c-4 -5 -4 -21 -1 -35 l7 -25 -31 23 c-24 18 -34 20 -48
11 -22 -14 -18 -46 13 -106 l25 -49 -22 -31 c-12 -16 -32 -58 -44 -91 -22 -60
-22 -61 -57 -58 -30 3 -38 -1 -50 -24 -13 -25 -14 -23 -21 54 -8 100 -11 108
-44 120 -47 18 -237 42 -330 42 -101 0 -93 7 -107 -92 -8 -54 -2 -51 -175 -63
-175 -12 -393 -39 -590 -75 -77 -14 -311 -94 -371 -126 -49 -27 -49 -27 -91
-10 -156 64 -573 -9 -718 -125 l-40 -32 -57 22 c-81 31 -167 37 -250 18 -178
-42 -277 -52 -638 -67 -351 -14 -837 -38 -1020 -50 -450 -30 -478 -33 -890
-94 -203 -31 -417 -35 -523 -11 -87 20 -101 29 -85 52 53 76 70 165 37 197
-23 23 -61 20 -89 -8 -36 -36 -43 -109 -19 -192 6 -23 -20 -57 -68 -88 -32
-21 -168 -33 -242 -22 -46 7 -97 41 -116 76 -8 15 -4 22 24 39 96 60 80 191
-23 191 -54 0 -65 -22 -63 -123 l2 -78 -62 -30 -63 -30 -234 3 c-164 2 -235 0
-238 -8 -4 -13 261 -30 402 -26 76 2 99 7 155 33 l65 30 15 -23 c46 -71 91
-88 235 -88 113 0 162 16 212 68 l29 30 54 -18 c140 -47 392 -46 690 4 378 63
679 87 1575 125 612 27 725 37 880 77 71 19 181 14 239 -10 l38 -16 -35 -39
c-74 -82 -76 -205 -5 -230 73 -26 178 76 178 171 0 23 -10 40 -40 68 l-40 37
45 32 c138 99 539 170 660 117 l40 -17 -72 -67 c-84 -78 -113 -123 -113 -175
0 -53 14 -74 59 -88 61 -18 119 -4 168 40 65 60 93 107 93 158 0 37 -6 50 -40
87 -54 58 -45 64 185 140 185 60 330 85 720 120 94 9 176 18 183 21 8 3 12 -9
12 -40 0 -25 0 -48 0 -51 1 -4 -50 -23 -113 -44 -180 -59 -369 -162 -429 -235
-52 -63 -106 -167 -123 -237 -14 -57 -17 -94 -11 -187 9 -164 22 -215 72 -287
45 -64 54 -71 146 -122 44 -25 68 -32 110 -31 l53 0 -45 19 c-81 33 -142 72
-206 133 -77 72 -90 107 -100 277 -11 201 36 325 169 450 74 69 461 220 564
220 25 0 61 -59 82 -135 17 -62 0 -85 -102 -147 -147 -89 -321 -205 -345 -231
-29 -31 -41 -81 -42 -169 0 -60 3 -69 23 -83 13 -8 44 -18 70 -21 43 -6 51 -3
103 32 59 41 117 104 128 140 4 12 18 34 32 49 14 15 48 61 76 102 54 80 127
144 212 187 57 29 154 36 202 14 25 -12 26 -15 19 -63 -3 -27 -9 -70 -12 -94
l-6 -44 52 5 c34 3 78 19 123 42 l70 37 52 -39 c68 -51 112 -74 139 -70 20 3
23 12 32 88 l10 85 75 0 c63 -1 86 -6 141 -32 76 -35 194 -114 256 -170 143
-131 282 -350 329 -520 16 -58 19 -63 45 -63 18 0 27 5 24 12 -38 125 -62 191
-80 228 -22 42 -170 234 -239 309 -75 81 -203 183 -270 216 -83 40 -220 70
-278 61 l-39 -6 7 82 c3 46 8 86 10 89 2 4 23 9 46 12 56 8 78 35 78 98 0 33
-5 51 -16 57 -8 5 -20 26 -26 48 -10 35 -13 61 -17 175 -1 36 -24 79 -36 68
-3 -4 -1 -28 6 -53 6 -26 9 -49 6 -52 -3 -3 -11 21 -18 53 -8 33 -23 68 -36
81 -12 12 -27 31 -33 42 -19 36 -40 24 -41 -22 l0 -43 -17 25 c-37 55 -72 82
-96 76 -16 -4 -26 -1 -30 9 -6 17 -22 20 -31 4z m115 -81 c32 -43 37 -58 20
-58 -19 0 -60 52 -60 76 0 33 5 30 40 -18z m-111 -20 c20 -25 22 -32 10 -39
-22 -14 -28 -11 -49 24 -26 42 -27 72 -2 56 9 -6 28 -25 41 -41z m220 -68 c1
-13 0 -13 -9 0 -5 8 -9 24 -9 35 l0 20 9 -20 c5 -11 9 -27 9 -35z m-125 -56
c32 -36 56 -68 53 -71 -8 -7 -102 62 -127 94 -16 21 -18 28 -8 35 20 12 19 12
82 -58z m87 17 c11 -27 -6 -19 -22 11 -8 16 -8 19 2 16 6 -2 16 -14 20 -27z
m-656 -14 c101 -11 110 -14 107 -32 -1 -11 -5 -48 -9 -82 l-6 -61 -51 -7 c-28
-4 -75 -18 -104 -32 l-53 -25 -21 27 c-18 23 -27 26 -55 22 l-33 -6 0 53 c0
29 5 78 11 109 l12 56 46 -5 c25 -3 96 -11 156 -17z m571 -98 c21 -13 54 -22
81 -23 42 -1 47 -4 67 -41 19 -34 27 -40 52 -37 49 4 66 -22 51 -80 -6 -21
-16 -30 -50 -39 -23 -6 -47 -13 -54 -14 -7 -2 -14 -41 -18 -99 -4 -53 -12 -99
-19 -104 -39 -31 -179 -40 -281 -19 l-60 13 2 140 c3 158 23 258 74 363 l32
64 44 -51 c24 -28 60 -61 79 -73z m-356 -35 c0 -50 -20 -98 -46 -108 -11 -4
-15 -2 -11 8 3 7 0 25 -8 39 -12 24 -12 85 1 147 l6 25 29 -33 c23 -26 29 -42
29 -78z m117 -51 c3 -7 -9 -13 -29 -15 l-33 -4 28 -12 c17 -7 27 -19 27 -32 0
-21 -16 -26 -37 -12 -15 9 -20 62 -9 80 9 16 48 12 53 -5z m-81 -71 c3 -15 16
-27 35 -34 l31 -11 -7 -96 c-4 -53 -8 -97 -9 -98 -1 -1 -21 5 -45 13 -67 23
-157 10 -233 -35 -78 -45 -182 -148 -275 -271 -102 -135 -161 -190 -209 -197
-32 -4 -43 -1 -59 17 -27 29 -26 114 1 160 26 44 154 141 307 232 132 78 177
115 177 147 0 14 8 23 28 27 132 30 154 43 150 92 -3 33 0 36 30 44 21 6 40
20 50 38 13 23 18 26 20 12 1 -9 5 -27 8 -40z m-129 41 c-4 -3 -23 -9 -44 -12
-51 -8 -56 -31 -6 -31 l38 0 -39 -23 c-49 -28 -47 -43 5 -40 82 4 26 -31 -82
-51 -35 -6 -36 -6 -66 53 l-31 59 40 18 c54 24 204 47 185 27z m-1502 -184
c31 -27 35 -37 35 -79 0 -36 -7 -56 -29 -87 -50 -69 -90 -93 -152 -93 -30 0
-60 5 -67 12 -7 7 -12 31 -12 54 0 46 41 109 101 156 19 14 45 35 58 47 13 11
25 21 27 21 2 0 19 -14 39 -31z m-4285 -60 c0 -39 -43 -129 -62 -129 -11 0
-21 68 -13 97 10 43 33 73 55 73 17 0 20 -7 20 -41z m-472 9 c16 -16 15 -43
-2 -77 -15 -27 -63 -67 -72 -58 -12 12 -15 106 -5 125 13 24 59 30 79 10z
m3959 -80 c26 -18 33 -30 33 -56 0 -43 -21 -82 -65 -121 -79 -69 -126 -22 -94
94 10 36 66 105 85 105 4 0 23 -10 41 -22z m2887 -107 c-4 -42 -11 -71 -18
-71 -11 0 -85 49 -136 89 l-25 19 25 5 c14 3 54 11 90 19 36 8 66 13 68 12 2
-1 0 -34 -4 -73z m-225 33 c6 -6 -142 -74 -162 -74 -16 0 -17 6 -11 48 3 26 8
50 10 53 4 6 155 -19 163 -27z"/>
<path d="M10329 1205 c-4 -5 -10 -24 -13 -42 -6 -25 -13 -32 -34 -35 -35 -4
-43 -42 -13 -58 12 -6 21 -19 21 -30 0 -27 17 -34 25 -10 4 13 0 31 -9 45 -20
30 -20 35 -1 35 20 0 37 35 33 73 -2 18 -6 28 -9 22z"/>
<path d="M10255 1170 c-3 -6 1 -13 10 -16 19 -8 30 0 20 15 -8 14 -22 14 -30
1z"/>
<path d="M10424 1139 c-3 -6 -2 -15 2 -19 12 -12 38 5 30 19 -9 14 -23 14 -32
0z"/>
<path d="M10582 1098 c-7 -7 -12 -18 -12 -26 0 -10 7 -9 30 5 17 9 30 21 30
25 0 12 -35 9 -48 -4z"/>
<path d="M10358 997 c-42 -29 -48 -59 -13 -75 41 -19 64 -15 75 14 12 30 4 70
-15 78 -8 3 -29 -5 -47 -17z m42 -33 c0 -20 -4 -25 -22 -22 -30 4 -33 23 -6
36 13 6 24 11 26 11 1 1 2 -11 2 -25z"/>
<path d="M2050 1340 c-64 -21 -115 -73 -158 -160 -24 -48 -27 -66 -26 -145 0
-98 18 -148 68 -196 35 -33 33 -39 -16 -40 -86 -1 -186 -62 -348 -215 -41 -38
-98 -89 -125 -111 -40 -33 -69 -73 -142 -202 -74 -128 -123 -236 -123 -268 0
-2 9 -3 20 -3 11 0 20 5 20 12 0 9 3 9 12 0 7 -7 19 -12 27 -12 12 1 10 6 -7
20 -17 14 -22 25 -17 42 13 42 145 275 179 314 l33 38 84 -28 c46 -16 87 -32
91 -35 7 -6 -29 -70 -113 -201 -62 -96 -85 -150 -65 -150 8 0 26 24 41 53 15
28 37 66 49 82 12 17 46 72 76 123 49 85 55 93 79 88 14 -3 68 -13 119 -22 50
-9 92 -18 92 -20 0 -2 -23 -41 -52 -87 -44 -70 -108 -196 -108 -212 0 -3 8 -5
19 -5 14 0 37 35 91 140 40 77 79 145 86 151 9 7 34 4 86 -12 40 -12 75 -23
77 -25 5 -5 -40 -136 -65 -186 -27 -54 -30 -68 -10 -68 14 0 61 98 91 190 10
30 19 56 20 58 1 1 23 -7 49 -18 l47 -20 -49 -72 c-27 -40 -63 -88 -80 -105
l-30 -33 27 0 c22 0 36 12 74 65 26 36 54 65 62 65 9 0 56 -19 105 -43 79 -37
88 -44 83 -64 -4 -17 -1 -23 11 -23 8 0 18 11 22 25 6 25 20 30 62 19 17 -5
21 -11 17 -25 -5 -15 -1 -19 17 -19 18 0 28 12 47 50 19 42 27 50 51 50 29 0
40 -18 40 -72 0 -18 5 -28 15 -28 17 0 18 2 6 54 l-9 38 46 -7 c62 -9 65 -12
57 -52 -5 -30 -4 -34 12 -31 24 4 36 74 17 93 -11 11 -12 20 -3 42 16 41 48
223 55 315 6 71 10 81 30 88 30 12 44 63 44 166 0 59 -5 94 -20 126 l-19 44
-118 17 c-65 10 -151 22 -190 28 -40 6 -77 8 -83 4 -19 -12 -44 -70 -55 -129
-12 -66 -22 -75 -52 -49 -18 16 -20 25 -14 82 4 40 12 66 20 69 8 3 27 17 44
31 42 38 31 66 -31 84 -43 13 -50 20 -80 76 -31 57 -32 62 -18 83 34 48 7 102
-67 138 -23 11 -53 27 -67 35 -34 20 -94 18 -160 -5z m45 -30 c-28 -12 -37
-12 -30 0 3 6 16 10 28 9 21 0 21 -1 2 -9z m-115 -80 c0 -5 -5 -10 -11 -10 -5
0 -7 5 -4 10 3 6 8 10 11 10 2 0 4 -4 4 -10z m-50 -77 c-1 -5 -7 -19 -15 -33
-10 -18 -14 -20 -15 -8 0 23 11 48 21 48 5 0 9 -3 9 -7z m393 -45 c8 -18 20
-47 27 -65 11 -29 29 -42 88 -58 32 -9 27 -21 -18 -50 -29 -18 -40 -32 -40
-50 0 -17 -9 -29 -30 -40 -63 -33 -74 -91 -19 -102 57 -11 16 -23 -81 -23
-104 0 -142 9 -176 41 -27 25 -32 150 -10 218 9 25 21 65 26 88 l10 41 68 7
c37 4 78 10 92 15 41 14 48 11 63 -22z m-373 -220 c0 -16 -8 -7 -29 28 -30 50
-26 68 4 19 14 -22 25 -43 25 -47z m641 -28 c4 -14 7 -59 8 -100 1 -70 0 -73
-15 -52 -22 31 -60 29 -78 -5 -13 -24 -15 -25 -16 -8 0 31 19 142 30 171 14
35 61 31 71 -6z m202 -1 c106 -12 109 -13 124 -43 20 -37 23 -186 5 -229 -12
-28 -12 -28 -99 -25 l-87 3 -11 50 c-9 45 -13 50 -37 50 -32 -1 -44 22 -53
105 -3 30 -9 68 -12 84 -5 28 -4 28 28 23 19 -3 83 -11 142 -18z m-413 -64 c0
-20 -5 -25 -23 -25 -33 0 -40 10 -20 32 23 26 43 23 43 -7z m-341 -46 c25 -34
75 -59 117 -59 25 0 26 -2 20 -37 -10 -57 -16 -73 -27 -73 -15 0 -129 59 -175
91 -41 28 -80 76 -70 86 6 7 65 21 92 22 12 1 30 -12 43 -30z m-102 -69 c31
-28 92 -68 138 -91 l84 -40 -6 -37 c-6 -46 -33 -191 -39 -214 -4 -13 -11 -15
-37 -8 -18 5 -52 14 -76 20 -32 9 -41 14 -32 23 6 6 11 18 11 27 0 9 14 29 30
45 30 29 40 65 18 65 -11 -1 -49 -42 -110 -121 -12 -15 -21 -15 -122 2 -60 11
-112 21 -114 24 -10 10 51 156 94 227 41 65 90 128 102 128 2 0 29 -23 59 -50z
m-135 6 c-37 -42 -102 -161 -133 -243 -14 -37 -30 -63 -38 -63 -24 0 -151 43
-151 52 0 4 25 25 54 48 30 22 63 51 73 65 16 22 79 74 187 153 42 30 43 28 8
-12z m639 21 c38 -29 27 -177 -14 -185 -19 -4 -24 13 -31 121 -5 69 -4 77 12
77 9 0 24 -6 33 -13z m118 -89 c-5 -102 12 -116 37 -28 25 91 38 88 31 -8 -5
-62 -3 -82 6 -82 12 0 47 84 47 113 0 9 5 19 11 22 7 5 10 -37 7 -141 -3 -146
-4 -151 -40 -238 -21 -49 -40 -91 -42 -94 -3 -3 -41 29 -85 71 -44 42 -93 83
-110 92 -28 14 -43 45 -22 45 13 0 67 119 92 203 44 150 73 169 68 45z m-185
20 c3 -29 6 -65 6 -79 0 -26 -1 -26 -47 -18 -27 4 -70 10 -97 14 l-48 7 7 45
c11 72 10 72 88 76 40 1 75 4 78 5 3 1 9 -22 13 -50z m-99 -113 c104 -12 103
-12 111 -60 6 -42 4 -48 -37 -97 -24 -29 -51 -59 -59 -68 -8 -8 -22 -26 -31
-39 l-15 -24 -53 18 c-46 15 -52 20 -47 39 3 11 13 66 22 121 21 128 21 127
41 122 10 -3 41 -8 68 -12z m515 -58 c3 -31 8 -57 13 -57 4 0 12 0 17 0 6 0
10 25 10 55 0 44 3 55 16 55 14 0 16 -9 10 -62 -18 -164 -58 -349 -75 -348
-14 1 -123 29 -127 33 -2 2 17 40 43 83 l48 79 4 113 c3 98 5 113 20 110 12
-2 17 -18 21 -61z m-360 26 c0 -5 -5 -15 -10 -23 -8 -12 -10 -11 -10 8 0 12 5
22 10 22 6 0 10 -3 10 -7z m-2 -207 c51 -35 51 -34 17 -183 -7 -30 -24 -29
-93 6 -31 17 -69 33 -84 37 -16 3 -28 7 -28 9 0 1 11 22 25 46 36 65 94 130
109 122 6 -5 30 -21 54 -37z m149 -192 c-13 -27 -22 -34 -35 -29 -9 3 -29 9
-45 12 -19 4 -26 10 -23 22 3 9 8 28 11 44 3 15 8 39 11 54 l5 26 47 -46 46
-46 -17 -37z"/>
<path d="M2294 994 c3 -9 6 -18 6 -20 0 -2 7 -4 15 -4 8 0 15 9 15 20 0 14 -7
20 -21 20 -15 0 -19 -4 -15 -16z"/>
<path d="M10312 617 c-24 -11 -40 -53 -26 -67 14 -13 68 -21 82 -11 8 5 12 21
10 41 -4 38 -30 53 -66 37z m36 -39 c-3 -7 -11 -13 -18 -13 -7 0 -15 6 -17 13
-3 7 4 12 17 12 13 0 20 -5 18 -12z"/>
<path d="M10307 405 c-10 -7 -17 -25 -17 -43 0 -26 5 -33 26 -38 35 -9 49 8
45 58 -2 25 -33 39 -54 23z m33 -45 c0 -5 -7 -10 -15 -10 -8 0 -15 5 -15 10 0
6 7 10 15 10 8 0 15 -4 15 -10z"/>
<path d="M10710 317 c0 -24 4 -79 10 -123 5 -43 12 -105 15 -137 5 -40 11 -57
21 -57 19 0 18 102 -1 190 -8 36 -14 81 -15 102 0 31 3 35 20 31 28 -7 94 -85
125 -146 19 -38 25 -66 25 -114 0 -52 3 -63 16 -63 14 0 16 11 12 78 -3 42
-12 91 -20 107 -27 51 -157 175 -184 175 -22 0 -24 -4 -24 -43z"/>
<path d="M9918 312 c-13 -16 -50 -75 -82 -130 -59 -106 -97 -144 -163 -168
l-38 -13 61 -1 c71 0 91 13 139 89 66 104 78 122 80 119 2 -2 0 -25 -5 -53 -5
-27 -11 -74 -14 -102 -4 -46 -3 -53 13 -53 15 0 19 12 25 78 4 42 13 111 21
152 8 41 16 82 18 90 4 26 -30 21 -55 -8z"/>
</g>
</svg>
